<mxfile host="app.diagrams.net" modified="2022-01-10T12:22:27.602Z" agent="5.0 (Windows NT 10.0; Win64; x64) AppleWebKit/537.36 (KHTML, like Gecko) Chrome/96.0.4664.110 Safari/537.36" etag="e7BJ7XhewcVNUrdukPli" version="15.2.1" type="github">
  <diagram id="tKv0VxTw6U8oqhbLYjSn" name="第 1 页">
    <mxGraphModel dx="1100" dy="668" grid="1" gridSize="10" guides="1" tooltips="1" connect="1" arrows="1" fold="1" page="1" pageScale="1" pageWidth="827" pageHeight="1169" math="0" shadow="0">
      <root>
        <mxCell id="0" />
        <mxCell id="1" parent="0" />
        <mxCell id="y-dI7r-PkCuqXCwZw97I-2" value="ServiceGroup" style="shape=umlLifeline;perimeter=lifelinePerimeter;whiteSpace=wrap;html=1;container=1;collapsible=0;recursiveResize=0;outlineConnect=0;" vertex="1" parent="1">
          <mxGeometry x="100" y="130" width="100" height="270" as="geometry" />
        </mxCell>
        <mxCell id="y-dI7r-PkCuqXCwZw97I-3" value="" style="html=1;points=[];perimeter=orthogonalPerimeter;" vertex="1" parent="y-dI7r-PkCuqXCwZw97I-2">
          <mxGeometry x="45" y="90" width="10" height="40" as="geometry" />
        </mxCell>
        <mxCell id="y-dI7r-PkCuqXCwZw97I-4" value="check" style="edgeStyle=orthogonalEdgeStyle;html=1;align=left;spacingLeft=2;endArrow=block;rounded=0;entryX=1;entryY=0;" edge="1" target="y-dI7r-PkCuqXCwZw97I-3" parent="y-dI7r-PkCuqXCwZw97I-2">
          <mxGeometry relative="1" as="geometry">
            <mxPoint x="50" y="70" as="sourcePoint" />
            <Array as="points">
              <mxPoint x="75" y="70" />
            </Array>
          </mxGeometry>
        </mxCell>
        <mxCell id="y-dI7r-PkCuqXCwZw97I-5" value="" style="html=1;points=[];perimeter=orthogonalPerimeter;" vertex="1" parent="y-dI7r-PkCuqXCwZw97I-2">
          <mxGeometry x="45" y="146" width="10" height="40" as="geometry" />
        </mxCell>
        <mxCell id="y-dI7r-PkCuqXCwZw97I-6" value="start" style="edgeStyle=orthogonalEdgeStyle;html=1;align=left;spacingLeft=2;endArrow=block;rounded=0;entryX=1;entryY=0;" edge="1" target="y-dI7r-PkCuqXCwZw97I-5" parent="y-dI7r-PkCuqXCwZw97I-2">
          <mxGeometry relative="1" as="geometry">
            <mxPoint x="56" y="126" as="sourcePoint" />
            <Array as="points">
              <mxPoint x="81" y="126" />
              <mxPoint x="81" y="146" />
            </Array>
          </mxGeometry>
        </mxCell>
        <mxCell id="y-dI7r-PkCuqXCwZw97I-7" value="Service" style="shape=umlLifeline;perimeter=lifelinePerimeter;whiteSpace=wrap;html=1;container=1;collapsible=0;recursiveResize=0;outlineConnect=0;" vertex="1" parent="1">
          <mxGeometry x="320" y="130" width="100" height="270" as="geometry" />
        </mxCell>
        <mxCell id="y-dI7r-PkCuqXCwZw97I-9" value="" style="html=1;points=[];perimeter=orthogonalPerimeter;" vertex="1" parent="y-dI7r-PkCuqXCwZw97I-7">
          <mxGeometry x="45" y="170" width="10" height="80" as="geometry" />
        </mxCell>
        <mxCell id="y-dI7r-PkCuqXCwZw97I-10" value="start_prop_full_backup" style="html=1;verticalAlign=bottom;endArrow=open;dashed=1;endSize=8;exitX=1.083;exitY=0.754;exitDx=0;exitDy=0;exitPerimeter=0;" edge="1" parent="1" source="y-dI7r-PkCuqXCwZw97I-5" target="y-dI7r-PkCuqXCwZw97I-7">
          <mxGeometry relative="1" as="geometry">
            <mxPoint x="290" y="340" as="sourcePoint" />
            <mxPoint x="210" y="340" as="targetPoint" />
          </mxGeometry>
        </mxCell>
        <mxCell id="y-dI7r-PkCuqXCwZw97I-12" value="call engine suc" style="edgeStyle=orthogonalEdgeStyle;html=1;align=left;spacingLeft=2;endArrow=block;rounded=0;entryX=1;entryY=0;" edge="1" parent="1">
          <mxGeometry relative="1" as="geometry">
            <mxPoint x="375" y="330" as="sourcePoint" />
            <Array as="points">
              <mxPoint x="400" y="330" />
            </Array>
            <mxPoint x="375" y="350" as="targetPoint" />
          </mxGeometry>
        </mxCell>
      </root>
    </mxGraphModel>
  </diagram>
</mxfile>
